<?xml version="1.0" standalone="no"?>
<!DOCTYPE svg PUBLIC "-//W3C//DTD SVG 20010904//EN"
 "http://www.w3.org/TR/2001/REC-SVG-20010904/DTD/svg10.dtd">
<svg version="1.0" xmlns="http://www.w3.org/2000/svg"
 width="384.000000pt" height="384.000000pt" viewBox="0 0 384.000000 384.000000"
 preserveAspectRatio="xMidYMid meet">
<metadata>
Created by potrace 1.14, written by Peter Selinger 2001-2017
</metadata>
<g transform="translate(0.000000,384.000000) scale(0.100000,-0.100000)"
fill="#000000" stroke="none">
<path d="M1716 3750 c-28 -5 -110 -38 -183 -74 -121 -60 -141 -73 -216 -150
-45 -46 -89 -96 -97 -112 -8 -16 -28 -47 -45 -69 -75 -96 -105 -185 -105 -308
0 -38 -7 -94 -16 -124 -23 -80 -12 -149 34 -215 20 -29 46 -69 59 -88 13 -19
30 -44 38 -55 15 -19 14 -20 -7 -25 -34 -9 -49 -47 -42 -105 4 -27 11 -61 16
-74 15 -40 21 -15 9 34 -10 39 -9 48 4 61 8 9 15 22 15 29 0 8 6 18 14 22 7 4
15 15 18 23 3 10 10 3 21 -20 22 -49 39 -118 31 -131 -3 -6 2 -16 11 -23 10
-7 19 -31 22 -59 11 -95 18 -51 19 122 2 218 8 248 54 274 42 23 59 36 188
149 55 48 111 107 125 131 17 28 38 49 59 58 18 7 44 21 58 30 14 10 39 20 56
22 17 3 61 21 98 41 61 32 74 35 130 31 82 -5 112 -13 168 -46 27 -16 48 -25
48 -22 0 4 16 -8 35 -27 19 -19 35 -37 35 -42 0 -32 57 -123 105 -166 36 -33
57 -62 61 -81 4 -17 10 -31 14 -31 17 0 32 -138 34 -297 1 -156 -1 -175 -27
-267 -16 -54 -26 -100 -23 -103 6 -6 46 127 46 154 0 10 4 23 8 29 9 10 27 82
37 149 7 45 35 107 50 112 6 2 19 -3 30 -11 15 -11 20 -30 23 -87 5 -85 20
-69 21 21 1 59 -18 100 -45 100 -27 0 5 67 59 125 47 51 52 73 50 225 -4 248
-42 365 -167 510 -48 57 -94 99 -124 115 -26 14 -62 35 -81 47 -26 17 -54 22
-135 26 -80 4 -105 9 -121 23 -47 43 -68 57 -160 104 -91 47 -102 50 -178 52
-45 1 -104 -2 -131 -7z"/>
<path d="M1497 2713 c-9 -2 -24 -18 -33 -34 -12 -25 -13 -32 -1 -43 11 -11 25
-12 68 -4 30 6 101 7 162 4 92 -5 107 -4 107 9 0 8 -15 24 -32 36 -29 17 -47
20 -136 17 -76 -2 -102 0 -102 10 0 12 -3 13 -33 5z"/>
<path d="M2275 2710 c-120 -12 -216 -53 -188 -81 6 -6 35 -5 85 6 72 15 98 15
165 0 18 -4 40 -4 50 0 10 5 28 7 40 6 36 -4 45 7 28 33 -14 20 -78 49 -101
44 -5 -1 -40 -4 -79 -8z"/>
<path d="M1600 2558 c-76 -12 -125 -46 -86 -61 21 -8 56 3 56 18 0 7 7 15 15
19 9 3 15 0 15 -9 0 -46 78 -62 100 -20 16 30 34 28 38 -3 2 -15 10 -22 27
-22 52 0 -3 66 -63 76 -15 3 -31 6 -37 7 -5 2 -35 0 -65 -5z"/>
<path d="M2203 2549 c-41 -12 -74 -56 -52 -69 10 -7 16 -3 22 13 14 38 47 50
47 17 0 -43 75 -44 95 -1 11 24 40 25 40 1 0 -21 49 -25 65 -5 9 11 10 19 3
26 -26 26 -156 37 -220 18z"/>
<path d="M1230 2308 c0 -29 16 -46 31 -31 6 6 2 19 -10 34 l-20 24 -1 -27z"/>
<path d="M1832 2138 c-20 -20 -14 -28 21 -28 40 0 51 8 36 27 -14 16 -41 17
-57 1z"/>
<path d="M2034 2139 c-8 -14 14 -29 44 -29 24 0 28 10 10 28 -15 15 -45 16
-54 1z"/>
<path d="M2515 2010 c-4 -12 -5 -24 -2 -27 3 -2 8 5 12 17 4 12 5 24 2 27 -3
2 -8 -5 -12 -17z"/>
<path d="M1783 1900 c-29 -14 -53 -28 -53 -31 0 -13 37 -16 56 -6 21 12 204
19 272 10 31 -4 42 -10 38 -19 -3 -8 -2 -14 1 -14 11 0 82 35 83 40 0 3 -20
16 -45 29 -33 18 -53 22 -77 17 -56 -11 -211 -18 -217 -9 -3 4 -30 -3 -58 -17z"/>
<path d="M1910 1748 c0 -10 37 -9 70 2 20 7 15 8 -22 7 -27 0 -48 -4 -48 -9z"/>
<path d="M1391 1589 c-41 -44 -36 -105 16 -235 26 -63 100 -194 110 -194 2 0
1 10 -2 21 -5 14 -3 19 4 15 10 -7 -26 86 -72 184 -18 37 -21 60 -19 132 2 49
-1 89 -7 92 -5 4 -19 -3 -30 -15z"/>
<path d="M2400 1507 c0 -10 -25 -92 -56 -183 -30 -91 -53 -171 -51 -177 2 -7
16 29 32 78 15 50 35 106 45 125 21 40 46 157 36 167 -3 3 -6 -1 -6 -10z"/>
<path d="M2281 1114 c0 -11 3 -14 6 -6 3 7 2 16 -1 19 -3 4 -6 -2 -5 -13z"/>
<path d="M1462 831 c-10 -6 -7 -10 12 -13 16 -3 25 -1 23 5 -5 15 -20 18 -35
8z"/>
<path d="M1418 813 c7 -3 16 -2 19 1 4 3 -2 6 -13 5 -11 0 -14 -3 -6 -6z"/>
<path d="M1992 504 c-22 -33 -30 -74 -14 -74 7 0 44 101 39 106 -1 2 -12 -13
-25 -32z"/>
</g>
</svg>
